<svg width="117" height="31" viewBox="0 0 117 31" fill="none" xmlns="http://www.w3.org/2000/svg">
<path d="M0 5C0 2.23858 2.23858 0 5 0H112C114.761 0 117 2.23858 117 5V26C117 28.7614 114.761 31 112 31H5C2.23858 31 0 28.7614 0 26V5Z" fill="#5F5F5F"/>
<path d="M15.646 12.248V13.508H21.562V12.248H15.646ZM15.958 14.648V15.86H21.31V14.648H15.958ZM15.514 17.288V18.464H21.766V17.288H15.514ZM17.926 12.644V17.912H19.258V12.644H17.926ZM19.642 16.244C19.99 16.616 20.398 17.144 20.59 17.48L21.55 16.94C21.346 16.616 20.914 16.112 20.554 15.764L19.642 16.244ZM13.582 10.28V21.068H15.046V11.6H22.174V21.068H23.722V10.28H13.582ZM14.374 19.148V20.468H22.882V19.148H14.374ZM38.122 15.152C39.202 16.172 40.606 17.612 41.242 18.512L42.442 17.588C41.734 16.688 40.282 15.32 39.214 14.36L38.122 15.152ZM38.158 9.812V12.68C38.158 14.252 37.954 16.352 35.362 17.684C35.698 17.936 36.19 18.464 36.394 18.776C39.13 17.144 39.634 14.684 39.634 12.692V9.812H38.158ZM33.946 11.804V21.104H35.386V13.22H43.066V11.804H33.946ZM42.43 11.804V19.412C42.43 19.616 42.358 19.688 42.13 19.7C41.902 19.7 41.098 19.7 40.39 19.664C40.582 20.036 40.81 20.696 40.858 21.092C41.926 21.092 42.694 21.08 43.198 20.852C43.69 20.612 43.858 20.216 43.858 19.436V11.804H42.43ZM53.746 12.044V13.388H58.402V12.044H53.746ZM55.45 9.98V12.704H56.794V9.98H55.45ZM61.234 12.02V13.388H64.726V12.02H61.234ZM59.23 19.16V20.504H63.526V19.16H59.23ZM60.514 9.8V16.052H62.002V9.8H60.514ZM58.594 15.464V21.068H59.986V16.808H62.842V21.02H64.306V15.464H58.594ZM53.482 18.584L53.77 20.024C55.114 19.724 56.89 19.316 58.534 18.92L58.39 17.588C56.626 17.984 54.73 18.368 53.482 18.584ZM54.058 13.952C54.31 15.236 54.502 16.916 54.478 18.008L55.714 17.768C55.69 16.652 55.498 15.032 55.198 13.736L54.058 13.952ZM56.734 13.616C56.674 14.984 56.446 16.856 56.206 18.02L57.406 18.26C57.658 17.144 57.946 15.38 58.138 13.856L56.734 13.616ZM78.538 9.812V13.976H80.002V9.812H78.538ZM76.534 14.684H82.054V16.22H76.534V14.684ZM75.166 13.34V17.552H83.518V13.34H75.166ZM79.21 10.868V12.212H84.31V10.868H79.21ZM77.158 18.464C77.302 19.292 77.398 20.36 77.398 21.008L78.862 20.828C78.838 20.192 78.706 19.148 78.526 18.332L77.158 18.464ZM79.63 18.476C79.966 19.268 80.326 20.312 80.446 20.936L81.862 20.588C81.706 19.94 81.31 18.944 80.938 18.188L79.63 18.476ZM82.066 18.404C82.642 19.208 83.29 20.312 83.542 20.996L84.934 20.456C84.634 19.76 83.938 18.704 83.362 17.936L82.066 18.404ZM75.178 18.032C74.842 18.908 74.254 19.868 73.678 20.384L75.01 21.044C75.634 20.384 76.222 19.352 76.558 18.38L75.178 18.032Z" fill="white"/>
<path d="M100.828 21.016L100.005 20.2495L103.903 16.0603L100 11.7555L100.834 11L105.431 16.0701L100.828 21.016V21.016Z" fill="white"/>
</svg>
