<svg width="117" height="31" viewBox="0 0 117 31" fill="none" xmlns="http://www.w3.org/2000/svg">
<path d="M0 5C0 2.23858 2.23858 0 5 0H112C114.761 0 117 2.23858 117 5V26C117 28.7614 114.761 31 112 31H5C2.23858 31 0 28.7614 0 26V5Z" fill="#5F5F5F"/>
<path d="M11.7585 20V11.2727H17.5369V12.794H13.6037V14.8736H17.1534V16.3949H13.6037V20H11.7585ZM21.9409 20.1278C21.2789 20.1278 20.7065 19.9872 20.2236 19.706C19.7434 19.4219 19.3727 19.027 19.1113 18.5213C18.85 18.0128 18.7193 17.4233 18.7193 16.7528C18.7193 16.0767 18.85 15.4858 19.1113 14.9801C19.3727 14.4716 19.7434 14.0767 20.2236 13.7955C20.7065 13.5114 21.2789 13.3693 21.9409 13.3693C22.6028 13.3693 23.1738 13.5114 23.6539 13.7955C24.1369 14.0767 24.5091 14.4716 24.7704 14.9801C25.0318 15.4858 25.1625 16.0767 25.1625 16.7528C25.1625 17.4233 25.0318 18.0128 24.7704 18.5213C24.5091 19.027 24.1369 19.4219 23.6539 19.706C23.1738 19.9872 22.6028 20.1278 21.9409 20.1278ZM21.9494 18.7216C22.2505 18.7216 22.502 18.6364 22.7037 18.4659C22.9054 18.2926 23.0574 18.0568 23.1596 17.7585C23.2647 17.4602 23.3173 17.1207 23.3173 16.7401C23.3173 16.3594 23.2647 16.0199 23.1596 15.7216C23.0574 15.4233 22.9054 15.1875 22.7037 15.0142C22.502 14.8409 22.2505 14.7543 21.9494 14.7543C21.6454 14.7543 21.3897 14.8409 21.1824 15.0142C20.9778 15.1875 20.823 15.4233 20.7179 15.7216C20.6156 16.0199 20.5645 16.3594 20.5645 16.7401C20.5645 17.1207 20.6156 17.4602 20.7179 17.7585C20.823 18.0568 20.9778 18.2926 21.1824 18.4659C21.3897 18.6364 21.6454 18.7216 21.9494 18.7216ZM27.0629 20V13.4545H28.8228V14.5966H28.891C29.0103 14.1903 29.2106 13.8835 29.4918 13.6761C29.7731 13.4659 30.097 13.3608 30.4634 13.3608C30.5543 13.3608 30.6524 13.3665 30.7575 13.3778C30.8626 13.3892 30.9549 13.4048 31.0345 13.4247V15.0355C30.9492 15.0099 30.8313 14.9872 30.6808 14.9673C30.5302 14.9474 30.3924 14.9375 30.2674 14.9375C30.0004 14.9375 29.7617 14.9957 29.5515 15.1122C29.3441 15.2259 29.1793 15.3849 29.0572 15.5895C28.9379 15.794 28.8782 16.0298 28.8782 16.2969V20H27.0629ZM35.3713 20.1278C34.698 20.1278 34.1185 19.9915 33.6327 19.7188C33.1497 19.4432 32.7775 19.054 32.5162 18.5511C32.2548 18.0455 32.1241 17.4474 32.1241 16.7571C32.1241 16.0838 32.2548 15.4929 32.5162 14.9844C32.7775 14.4759 33.1454 14.0795 33.6199 13.7955C34.0971 13.5114 34.6568 13.3693 35.2988 13.3693C35.7307 13.3693 36.1327 13.4389 36.5048 13.5781C36.8798 13.7145 37.2065 13.9205 37.4849 14.196C37.7662 14.4716 37.9849 14.8182 38.1412 15.2358C38.2974 15.6506 38.3756 16.1364 38.3756 16.6932V17.1918H32.8486V16.0668H36.6667C36.6667 15.8054 36.6099 15.5739 36.4963 15.3722C36.3827 15.1705 36.225 15.0128 36.0233 14.8991C35.8244 14.7827 35.5929 14.7244 35.3287 14.7244C35.0531 14.7244 34.8088 14.7884 34.5957 14.9162C34.3855 15.0412 34.2207 15.2102 34.1014 15.4233C33.9821 15.6335 33.921 15.8679 33.9182 16.1264V17.196C33.9182 17.5199 33.9778 17.7997 34.0971 18.0355C34.2193 18.2713 34.3912 18.4531 34.6128 18.581C34.8344 18.7088 35.0971 18.7727 35.4011 18.7727C35.6028 18.7727 35.7875 18.7443 35.9551 18.6875C36.1227 18.6307 36.2662 18.5455 36.3855 18.4318C36.5048 18.3182 36.5957 18.179 36.6582 18.0142L38.3372 18.125C38.252 18.5284 38.0773 18.8807 37.8131 19.1818C37.5517 19.4801 37.2136 19.7131 36.7988 19.8807C36.3869 20.0455 35.9111 20.1278 35.3713 20.1278ZM40.2802 20V13.4545H42.0956V20H40.2802ZM41.1921 12.6108C40.9223 12.6108 40.6907 12.5213 40.4975 12.3423C40.3072 12.1605 40.212 11.9432 40.212 11.6903C40.212 11.4403 40.3072 11.2259 40.4975 11.0469C40.6907 10.8651 40.9223 10.7741 41.1921 10.7741C41.462 10.7741 41.6921 10.8651 41.8825 11.0469C42.0757 11.2259 42.1723 11.4403 42.1723 11.6903C42.1723 11.9432 42.0757 12.1605 41.8825 12.3423C41.6921 12.5213 41.462 12.6108 41.1921 12.6108ZM47.2186 22.5909C46.6305 22.5909 46.1263 22.5099 45.7058 22.348C45.2882 22.1889 44.9558 21.9716 44.7087 21.696C44.4615 21.4205 44.301 21.1108 44.2271 20.767L45.9061 20.5412C45.9572 20.6719 46.0382 20.794 46.149 20.9077C46.2598 21.0213 46.4061 21.1122 46.5879 21.1804C46.7726 21.2514 46.997 21.2869 47.2612 21.2869C47.6561 21.2869 47.9814 21.1903 48.2371 20.9972C48.4956 20.8068 48.6249 20.4872 48.6249 20.0384V18.8409H48.5482C48.4686 19.0227 48.3493 19.1946 48.1902 19.3565C48.0311 19.5185 47.8266 19.6506 47.5766 19.7528C47.3266 19.8551 47.0283 19.9062 46.6817 19.9062C46.1902 19.9062 45.7428 19.7926 45.3393 19.5653C44.9388 19.3352 44.6192 18.9844 44.3805 18.5128C44.1447 18.0384 44.0268 17.4389 44.0268 16.7145C44.0268 15.973 44.1476 15.3537 44.3891 14.8565C44.6305 14.3594 44.9516 13.9872 45.3521 13.7401C45.7555 13.4929 46.1973 13.3693 46.6774 13.3693C47.0439 13.3693 47.3507 13.4318 47.5979 13.5568C47.845 13.679 48.0439 13.8324 48.1945 14.017C48.3479 14.1989 48.4658 14.3778 48.5482 14.554H48.6163V13.4545H50.4189V20.0639C50.4189 20.6207 50.2825 21.0866 50.0098 21.4616C49.7371 21.8366 49.3592 22.1179 48.8763 22.3054C48.3962 22.4957 47.8436 22.5909 47.2186 22.5909ZM47.257 18.5426C47.5496 18.5426 47.7967 18.4702 47.9984 18.3253C48.203 18.1776 48.3592 17.9673 48.4672 17.6946C48.578 17.419 48.6334 17.0895 48.6334 16.706C48.6334 16.3224 48.5794 15.9901 48.4714 15.7088C48.3635 15.4247 48.2072 15.2045 48.0027 15.0483C47.7982 14.892 47.5496 14.8139 47.257 14.8139C46.9587 14.8139 46.7072 14.8949 46.5027 15.0568C46.2982 15.2159 46.1433 15.4375 46.0382 15.7216C45.9331 16.0057 45.8805 16.3338 45.8805 16.706C45.8805 17.0838 45.9331 17.4105 46.0382 17.6861C46.1462 17.9588 46.301 18.1705 46.5027 18.321C46.7072 18.4687 46.9587 18.5426 47.257 18.5426ZM54.3988 16.2159V20H52.5835V13.4545H54.3136V14.6094H54.3903C54.5352 14.2287 54.7781 13.9276 55.119 13.706C55.4599 13.4815 55.8733 13.3693 56.3591 13.3693C56.8136 13.3693 57.2099 13.4688 57.548 13.6676C57.8861 13.8665 58.1488 14.1506 58.3363 14.5199C58.5238 14.8864 58.6176 15.3239 58.6176 15.8324V20H56.8022V16.1562C56.8051 15.7557 56.7028 15.4432 56.4954 15.2188C56.288 14.9915 56.0025 14.8778 55.6389 14.8778C55.3946 14.8778 55.1787 14.9304 54.9912 15.0355C54.8065 15.1406 54.6616 15.294 54.5565 15.4957C54.4542 15.6946 54.4017 15.9347 54.3988 16.2159ZM69.0342 13.7827C69.0001 13.4389 68.8538 13.1719 68.5952 12.9815C68.3367 12.7912 67.9859 12.696 67.5427 12.696C67.2415 12.696 66.9873 12.7386 66.7799 12.8239C66.5725 12.9062 66.4134 13.0213 66.3026 13.169C66.1947 13.3168 66.1407 13.4844 66.1407 13.6719C66.135 13.8281 66.1677 13.9645 66.2387 14.081C66.3126 14.1974 66.4134 14.2983 66.5413 14.3835C66.6691 14.4659 66.8168 14.5384 66.9844 14.6009C67.152 14.6605 67.331 14.7116 67.5214 14.7543L68.3055 14.9418C68.6861 15.027 69.0356 15.1406 69.3538 15.2827C69.6719 15.4247 69.9475 15.5994 70.1805 15.8068C70.4134 16.0142 70.5938 16.2585 70.7217 16.5398C70.8523 16.821 70.9191 17.1435 70.9219 17.5071C70.9191 18.0412 70.7827 18.5043 70.5128 18.8963C70.2458 19.2855 69.8594 19.5881 69.3538 19.804C68.8509 20.017 68.2444 20.1236 67.5342 20.1236C66.8296 20.1236 66.216 20.0156 65.6932 19.7997C65.1734 19.5838 64.7671 19.2642 64.4745 18.8409C64.1847 18.4148 64.0327 17.8878 64.0185 17.2599H65.804C65.8239 17.5526 65.9077 17.7969 66.0555 17.9929C66.206 18.1861 66.4063 18.3324 66.6563 18.4318C66.9091 18.5284 67.1947 18.5767 67.5128 18.5767C67.8253 18.5767 68.0966 18.5312 68.3268 18.4403C68.5597 18.3494 68.7401 18.223 68.868 18.0611C68.9958 17.8991 69.0597 17.7131 69.0597 17.5028C69.0597 17.3068 69.0015 17.142 68.885 17.0085C68.7714 16.875 68.6038 16.7614 68.3822 16.6676C68.1634 16.5739 67.8949 16.4886 67.5768 16.4119L66.6265 16.1733C65.8907 15.9943 65.3097 15.7145 64.8836 15.3338C64.4574 14.9531 64.2458 14.4403 64.2486 13.7955C64.2458 13.267 64.3864 12.8054 64.6705 12.4105C64.9574 12.0156 65.3509 11.7074 65.8509 11.4858C66.3509 11.2642 66.9191 11.1534 67.5555 11.1534C68.2032 11.1534 68.7685 11.2642 69.2515 11.4858C69.7373 11.7074 70.1151 12.0156 70.385 12.4105C70.6549 12.8054 70.7941 13.2628 70.8026 13.7827H69.0342ZM72.849 20V13.4545H74.6643V20H72.849ZM73.7609 12.6108C73.491 12.6108 73.2595 12.5213 73.0663 12.3423C72.876 12.1605 72.7808 11.9432 72.7808 11.6903C72.7808 11.4403 72.876 11.2259 73.0663 11.0469C73.2595 10.8651 73.491 10.7741 73.7609 10.7741C74.0308 10.7741 74.2609 10.8651 74.4512 11.0469C74.6444 11.2259 74.741 11.4403 74.741 11.6903C74.741 11.9432 74.6444 12.1605 74.4512 12.3423C74.2609 12.5213 74.0308 12.6108 73.7609 12.6108ZM80.32 13.4545V14.8182H76.3783V13.4545H80.32ZM77.2732 11.8864H79.0885V17.9886C79.0885 18.1562 79.1141 18.2869 79.1652 18.3807C79.2163 18.4716 79.2874 18.5355 79.3783 18.5724C79.472 18.6094 79.58 18.6278 79.7021 18.6278C79.7874 18.6278 79.8726 18.6207 79.9578 18.6065C80.043 18.5895 80.1084 18.5767 80.1538 18.5682L80.4393 19.919C80.3484 19.9474 80.2206 19.9801 80.0558 20.017C79.891 20.0568 79.6908 20.081 79.455 20.0895C79.0175 20.1065 78.6339 20.0483 78.3044 19.9148C77.9777 19.7812 77.7234 19.5739 77.5416 19.2926C77.3598 19.0114 77.2703 18.6562 77.2732 18.2273V11.8864ZM85.1352 20.1278C84.4619 20.1278 83.8824 19.9915 83.3966 19.7188C82.9136 19.4432 82.5414 19.054 82.2801 18.5511C82.0187 18.0455 81.888 17.4474 81.888 16.7571C81.888 16.0838 82.0187 15.4929 82.2801 14.9844C82.5414 14.4759 82.9093 14.0795 83.3838 13.7955C83.861 13.5114 84.4207 13.3693 85.0628 13.3693C85.4946 13.3693 85.8966 13.4389 86.2687 13.5781C86.6437 13.7145 86.9704 13.9205 87.2488 14.196C87.5301 14.4716 87.7488 14.8182 87.9051 15.2358C88.0613 15.6506 88.1395 16.1364 88.1395 16.6932V17.1918H82.6125V16.0668H86.4307C86.4307 15.8054 86.3738 15.5739 86.2602 15.3722C86.1466 15.1705 85.9889 15.0128 85.7872 14.8991C85.5883 14.7827 85.3568 14.7244 85.0926 14.7244C84.817 14.7244 84.5727 14.7884 84.3596 14.9162C84.1494 15.0412 83.9846 15.2102 83.8653 15.4233C83.746 15.6335 83.6849 15.8679 83.6821 16.1264V17.196C83.6821 17.5199 83.7417 17.7997 83.861 18.0355C83.9832 18.2713 84.1551 18.4531 84.3767 18.581C84.5983 18.7088 84.861 18.7727 85.165 18.7727C85.3667 18.7727 85.5514 18.7443 85.719 18.6875C85.8866 18.6307 86.0301 18.5455 86.1494 18.4318C86.2687 18.3182 86.3596 18.179 86.4221 18.0142L88.1011 18.125C88.0159 18.5284 87.8412 18.8807 87.577 19.1818C87.3156 19.4801 86.9775 19.7131 86.5628 19.8807C86.1508 20.0455 85.675 20.1278 85.1352 20.1278Z" fill="white"/>
<path d="M100.828 21.016L100.005 20.2495L103.903 16.0603L100 11.7555L100.834 11L105.431 16.0701L100.828 21.016V21.016Z" fill="white"/>
</svg>
